<svg width="166" height="31" viewBox="0 0 166 31" fill="none" xmlns="http://www.w3.org/2000/svg">
<g clip-path="url(#clip0_2156_528)">
<path d="M23.768 9.0621L10.076 0.912598H0.5V29.8851H10.076V11.9556L23.768 20.1066V29.8851H33.3455V0.912598H23.768V9.0621Z" fill="#027468"/>
<path d="M18.8915 22.3565H14.96V29.885H18.8915V22.355V22.3565ZM50.6945 0.5C41.7455 0.5 34.8245 7.154 34.8245 15.5V15.584C34.8245 23.924 41.66 30.5 50.609 30.5C59.5595 30.5 66.479 23.846 66.479 15.5V15.416C66.479 7.076 59.6435 0.5 50.6945 0.5ZM56.705 15.584C56.705 18.953 54.386 21.9935 50.7005 21.9935C46.973 21.9935 44.6135 18.911 44.6135 15.5V15.416C44.6135 12.047 46.931 9.0065 50.6165 9.0065C54.344 9.0065 56.705 12.089 56.705 15.5V15.584ZM84.335 11.2295L78.1205 1.115H68.015V29.885H77.4995V15.626L84.167 25.859H84.335L91.01 15.626V29.885H100.655V1.115H90.551L84.335 11.2295ZM114.08 0.9125L101.861 29.885H112.22L113.712 26.0195H123.86L125.397 29.885H135.917L123.698 0.9125H114.08ZM116.151 19.1975L118.8 12.215L121.451 19.1975H116.151ZM148.221 1.115H137.115V29.8775H147.89C159.615 29.8775 165.5 23.8385 165.5 15.332V15.248C165.492 6.749 159.735 1.115 148.221 1.115ZM155.718 15.542C155.718 19.694 152.858 21.497 148.425 21.497H146.811V9.503H148.425C152.858 9.503 155.718 11.3135 155.718 15.458V15.542Z" fill="#027468"/>
</g>
<defs>
<clipPath id="clip0_2156_528">
<rect width="165" height="30" fill="white" transform="translate(0.5 0.5)"/>
</clipPath>
</defs>
</svg>
