<svg width="500" height="500" viewBox="0 0 500 500" fill="none" xmlns="http://www.w3.org/2000/svg">
<path fill-rule="evenodd" clip-rule="evenodd" d="M100 0C44.7715 0 0 44.7715 0 100V400C0 455.228 44.7715 500 100 500H400C455.228 500 500 455.228 500 400V100C500 44.7715 455.228 0 400 0H100ZM169.379 128L169.629 378H238.629V238C238.629 229.167 240.712 221.25 244.879 214.25C249.046 207.083 254.712 201.417 261.879 197.25C269.046 193.083 276.962 191 285.629 191C291.796 191 297.879 192.25 303.879 194.75L331.129 125C321.962 122.333 312.796 121 303.629 121C291.129 121 279.212 123.25 267.879 127.75C256.712 132.25 246.962 138.5 238.629 146.5L238.379 128H169.379Z" fill="url(#paint0_linear_3060_130)"/>
<defs>
<linearGradient id="paint0_linear_3060_130" x1="353.746" y1="637.5" x2="-83.756" y2="306.367" gradientUnits="userSpaceOnUse">
<stop stop-color="#00D5AB"/>
<stop offset="1" stop-color="#00269F"/>
</linearGradient>
</defs>
</svg>
