<svg width="1563" height="500" viewBox="0 0 1563 500" fill="none" xmlns="http://www.w3.org/2000/svg">
<path fill-rule="evenodd" clip-rule="evenodd" d="M100 0C44.7715 0 0 44.7715 0 100V400C0 455.228 44.7715 500 100 500H400C455.228 500 500 455.228 500 400V100C500 44.7715 455.228 0 400 0H100ZM169.379 128L169.629 378H238.629V238C238.629 229.167 240.712 221.25 244.879 214.25C249.046 207.083 254.712 201.417 261.879 197.25C269.046 193.083 276.962 191 285.629 191C291.796 191 297.879 192.25 303.879 194.75L331.129 125C321.962 122.333 312.796 121 303.629 121C291.129 121 279.212 123.25 267.879 127.75C256.712 132.25 246.962 138.5 238.629 146.5L238.379 128H169.379Z" fill="white"/>
<path d="M650.504 374.5L650.254 124.5H719.254L719.504 143C727.837 135 737.587 128.75 748.754 124.25C760.087 119.75 772.004 117.5 784.504 117.5C793.671 117.5 802.837 118.833 812.004 121.5L784.754 191.25C778.754 188.75 772.671 187.5 766.504 187.5C757.837 187.5 749.921 189.583 742.754 193.75C735.587 197.917 729.921 203.583 725.754 210.75C721.587 217.75 719.504 225.667 719.504 234.5V374.5H650.504Z" fill="white"/>
<path d="M1009.25 124.5H1082.75L945.754 499.5H872.754L917.754 374.5L827.754 124.5H903.254L952.254 280.25L1009.25 124.5Z" fill="white"/>
<path d="M1187.36 379C1174.53 378 1162.19 375.333 1150.36 371C1138.53 366.5 1127.94 360.5 1118.61 353C1109.44 345.333 1102.28 336.167 1097.11 325.5L1155.11 300.5C1156.94 303.167 1159.69 306.083 1163.36 309.25C1167.03 312.25 1171.44 314.917 1176.61 317.25C1181.94 319.583 1188.11 320.75 1195.11 320.75C1200.28 320.75 1205.28 320.167 1210.11 319C1214.94 317.667 1218.86 315.583 1221.86 312.75C1224.86 309.75 1226.36 305.833 1226.36 301C1226.36 295.667 1224.44 291.583 1220.61 288.75C1216.78 285.917 1212.11 283.833 1206.61 282.5C1201.28 281 1196.11 279.75 1191.11 278.75C1175.78 276.083 1161.28 271.333 1147.61 264.5C1134.11 257.5 1123.11 248.5 1114.61 237.5C1106.11 226.5 1101.86 213.333 1101.86 198C1101.86 181.167 1106.28 166.667 1115.11 154.5C1123.94 142.167 1135.44 132.667 1149.61 126C1163.78 119.333 1179.11 116 1195.61 116C1215.11 116 1233.19 120.083 1249.86 128.25C1266.53 136.417 1279.94 147.917 1290.11 162.75L1235.61 195C1233.44 191.833 1230.61 188.833 1227.11 186C1223.78 183 1219.86 180.5 1215.36 178.5C1211.03 176.333 1206.36 175.083 1201.36 174.75C1194.86 174.25 1188.94 174.667 1183.61 176C1178.28 177.167 1174.03 179.417 1170.86 182.75C1167.86 186.083 1166.36 190.583 1166.36 196.25C1166.36 201.75 1168.78 205.833 1173.61 208.5C1178.44 211 1184.03 212.917 1190.36 214.25C1196.69 215.417 1202.28 216.833 1207.11 218.5C1221.61 223.167 1235.19 229.167 1247.86 236.5C1260.69 243.667 1271.03 252.5 1278.86 263C1286.69 273.5 1290.36 285.833 1289.86 300C1289.86 316.5 1284.94 331 1275.11 343.5C1265.28 355.833 1252.53 365.25 1236.86 371.75C1221.36 378.083 1204.86 380.5 1187.36 379Z" fill="white"/>
<path d="M1437.5 381C1414.5 381 1393.5 375.083 1374.5 363.25C1355.67 351.417 1340.58 335.5 1329.25 315.5C1318.08 295.5 1312.5 273.417 1312.5 249.25C1312.5 231.083 1315.75 214.083 1322.25 198.25C1328.75 182.25 1337.67 168.25 1349 156.25C1360.5 144.083 1373.83 134.583 1389 127.75C1404.17 120.917 1420.33 117.5 1437.5 117.5C1457.33 117.5 1475.42 121.75 1491.75 130.25C1508.25 138.75 1522.17 150.333 1533.5 165C1545 179.667 1553.17 196.25 1558 214.75C1563 233.25 1563.83 252.5 1560.5 272.5H1387C1389.17 279.833 1392.5 286.5 1397 292.5C1401.67 298.333 1407.33 303 1414 306.5C1420.83 310 1428.67 311.833 1437.5 312C1446.17 312.167 1454.17 310.167 1461.5 306C1468.83 301.833 1475.08 296.25 1480.25 289.25L1550.75 305.5C1540.58 327.667 1525.42 345.833 1505.25 360C1485.08 374 1462.5 381 1437.5 381ZM1384.5 221.5H1490.75C1488.58 213.167 1484.92 205.667 1479.75 199C1474.58 192.333 1468.33 187.083 1461 183.25C1453.83 179.417 1446 177.5 1437.5 177.5C1429.17 177.5 1421.33 179.417 1414 183.25C1406.83 187.083 1400.67 192.333 1395.5 199C1390.5 205.5 1386.83 213 1384.5 221.5Z" fill="white"/>
</svg>
